<svg width="47" height="47" viewBox="0 0 47 47" fill="none" xmlns="http://www.w3.org/2000/svg">
<g clip-path="url(#clip0_2007_21)">
<path d="M23.7747 15.146C22.0694 15.146 20.4023 15.6517 18.9844 16.5991C17.5664 17.5466 16.4613 18.8932 15.8087 20.4687C15.1561 22.0443 14.9853 23.7779 15.318 25.4505C15.6507 27.1231 16.4719 28.6595 17.6778 29.8653C18.8836 31.0712 20.42 31.8924 22.0926 32.2251C23.7652 32.5578 25.4988 32.387 27.0744 31.7344C28.6499 31.0818 29.9965 29.9766 30.944 28.5587C31.8914 27.1408 32.3971 25.4737 32.3971 23.7684C32.3946 21.4823 31.4854 19.2906 29.8689 17.6742C28.2525 16.0577 26.0608 15.1485 23.7747 15.146ZM23.7747 30.9537C22.3536 30.9537 20.9644 30.5323 19.7828 29.7427C18.6012 28.9532 17.6802 27.831 17.1364 26.5181C16.5925 25.2051 16.4502 23.7604 16.7275 22.3666C17.0047 20.9728 17.6891 19.6925 18.6939 18.6876C19.6988 17.6827 20.9791 16.9984 22.3729 16.7211C23.7668 16.4439 25.2115 16.5862 26.5244 17.13C27.8374 17.6738 28.9596 18.5948 29.7491 19.7764C30.5386 20.958 30.96 22.3472 30.96 23.7684C30.9579 25.6734 30.2002 27.4998 28.8532 28.8468C27.5061 30.1939 25.6797 30.9516 23.7747 30.9537Z" fill="white"/>
<path d="M23.724 20.627C23.6706 20.4937 23.5785 20.3795 23.4595 20.299C23.3405 20.2186 23.2001 20.1757 23.0565 20.1758H21.6195C21.4758 20.1757 21.3355 20.2186 21.2165 20.299C21.0975 20.3795 21.0054 20.4937 20.9519 20.627L19.5149 24.2197C19.4812 24.3048 19.4639 24.3955 19.4639 24.487V27.3611H20.9009V25.2055H23.7751V27.3611H25.2121V24.487C25.2121 24.3955 25.1948 24.3048 25.1611 24.2197L23.724 20.627ZM22.1059 21.6128H22.5701L23.4323 23.7684H21.2437L22.1059 21.6128Z" fill="white"/>
<path d="M27.3677 20.1758H25.9307V27.3611H27.3677V20.1758Z" fill="white"/>
<path d="M42.4563 8.67927C43.2594 8.68166 44.0403 8.41569 44.675 7.92357C45.3097 7.43146 45.7618 6.74143 45.9596 5.96302C46.1573 5.18462 46.0893 4.36247 45.7664 3.62712C45.4435 2.89176 44.8842 2.28534 44.1773 1.90416C43.4704 1.52297 42.6565 1.38887 41.8646 1.52313C41.0728 1.65739 40.3485 2.05233 39.8068 2.64523C39.2651 3.23814 38.9369 3.99503 38.8745 4.79572C38.8121 5.59642 39.0189 6.39502 39.4622 7.06473L34.444 12.083L33.428 11.0662C33.3057 10.9439 33.1434 10.8699 32.9709 10.8576C32.7984 10.8453 32.6272 10.8957 32.4888 10.9994L30.9498 12.1534C30.5905 11.9292 30.2133 11.728 29.8339 11.5397L32.1863 9.18727C32.3211 9.05255 32.3968 8.86982 32.3969 8.67927V7.14018C33.0742 6.96529 33.6645 6.54938 34.0571 5.9704C34.4497 5.39142 34.6177 4.68913 34.5296 3.99516C34.4414 3.3012 34.1032 2.6632 33.5783 2.20076C33.0534 1.73832 32.3779 1.48319 31.6783 1.48319C30.9788 1.48319 30.3033 1.73832 29.7784 2.20076C29.2535 2.6632 28.9153 3.3012 28.8271 3.99516C28.739 4.68913 28.907 5.39142 29.2996 5.9704C29.6922 6.54938 30.2825 6.96529 30.9598 7.14018V8.3818L28.4054 10.9362C27.9173 10.757 27.4193 10.6061 26.9138 10.4842L26.6414 8.57724C26.6169 8.40609 26.5314 8.24953 26.4008 8.13628C26.2701 8.02304 26.103 7.96072 25.9301 7.96074H21.6189C21.446 7.96072 21.2789 8.02304 21.1482 8.13628C21.0176 8.24953 20.9321 8.40609 20.9076 8.57724L20.6352 10.4842C20.1297 10.6061 19.6317 10.757 19.1436 10.9362L16.5892 8.3818V7.14018C17.2665 6.96529 17.8568 6.54938 18.2494 5.9704C18.642 5.39142 18.81 4.68913 18.7219 3.99516C18.6337 3.3012 18.2955 2.6632 17.7706 2.20076C17.2457 1.73832 16.5702 1.48319 15.8707 1.48319C15.1711 1.48319 14.4956 1.73832 13.9707 2.20076C13.4458 2.6632 13.1076 3.3012 13.0194 3.99516C12.9313 4.68913 13.0993 5.39142 13.4919 5.9704C13.8845 6.54938 14.4748 6.96529 15.1521 7.14018V8.67927C15.1522 8.86982 15.2279 9.05255 15.3627 9.18727L17.7151 11.5397C17.3357 11.728 16.9614 11.9292 16.5993 12.1534L15.0602 10.9994C14.9218 10.8957 14.7506 10.8453 14.5781 10.8576C14.4056 10.8699 14.2433 10.9439 14.121 11.0662L13.105 12.083L8.08681 7.06473C8.57979 6.31991 8.77858 5.41855 8.64463 4.53547C8.51068 3.65238 8.05354 2.85052 7.36186 2.2854C6.67018 1.72027 5.79327 1.43217 4.90121 1.47697C4.00915 1.52177 3.16552 1.89628 2.53394 2.52786C1.90236 3.15944 1.52786 4.00307 1.48305 4.89513C1.43825 5.78719 1.72635 6.6641 2.29148 7.35578C2.8566 8.04746 3.65846 8.5046 4.54155 8.63856C5.42463 8.77251 6.32599 8.57371 7.07081 8.08073L12.089 13.099L11.0723 14.115C10.95 14.2372 10.8759 14.3995 10.8637 14.5721C10.8514 14.7446 10.9017 14.9157 11.0055 15.0541L12.1594 16.5925C11.9107 17.0009 11.6836 17.422 11.479 17.8542L8.98138 15.3566C8.84666 15.2218 8.66393 15.1461 8.47338 15.1461H7.14626C6.97137 14.4687 6.55546 13.8784 5.97648 13.4858C5.3975 13.0932 4.69521 12.9252 4.00124 13.0134C3.30728 13.1015 2.66928 13.4397 2.20684 13.9646C1.7444 14.4895 1.48927 15.165 1.48927 15.8646C1.48927 16.5641 1.7444 17.2397 2.20684 17.7645C2.66928 18.2894 3.30728 18.6277 4.00124 18.7158C4.69521 18.8039 5.3975 18.636 5.97648 18.2434C6.55546 17.8507 6.97137 17.2604 7.14626 16.5831H8.17591L10.8855 19.2927C10.7308 19.7311 10.5989 20.1772 10.4903 20.6292L8.58332 20.9015C8.41216 20.926 8.2556 21.0115 8.14236 21.1421C8.02912 21.2728 7.96679 21.4399 7.96682 21.6128V25.924C7.96679 26.0969 8.02912 26.264 8.14236 26.3947C8.2556 26.5254 8.41216 26.6108 8.58332 26.6354L10.4903 26.9077C10.5989 27.3597 10.7308 27.8058 10.8855 28.2442L8.17591 30.9537H7.14626C6.97137 30.2764 6.55546 29.6861 5.97648 29.2935C5.3975 28.9009 4.69521 28.7329 4.00124 28.8211C3.30728 28.9092 2.66928 29.2474 2.20684 29.7723C1.7444 30.2972 1.48927 30.9727 1.48927 31.6723C1.48927 32.3718 1.7444 33.0473 2.20684 33.5722C2.66928 34.0971 3.30728 34.4353 4.00124 34.5235C4.69521 34.6116 5.3975 34.4437 5.97648 34.051C6.55546 33.6584 6.97137 33.0681 7.14626 32.3908H8.47338C8.66393 32.3908 8.84666 32.315 8.98138 32.1803L11.479 29.6827C11.6836 30.1146 11.9108 30.5355 12.1594 30.9437L11.0055 32.4828C10.9017 32.6211 10.8514 32.7923 10.8637 32.9648C10.8759 33.1373 10.95 33.2996 11.0723 33.4219L12.089 34.4379L7.07081 39.4561C6.32599 38.9631 5.42463 38.7643 4.54155 38.8983C3.65846 39.0322 2.8566 39.4894 2.29148 40.1811C1.72635 40.8727 1.43825 41.7497 1.48305 42.6417C1.52786 43.5338 1.90236 44.3774 2.53394 45.009C3.16552 45.6406 4.00915 46.0151 4.90121 46.0599C5.79327 46.1047 6.67018 45.8166 7.36186 45.2515C8.05354 44.6863 8.51068 43.8845 8.64463 43.0014C8.77858 42.1183 8.57979 41.2169 8.08681 40.4721L13.105 35.4539L14.121 36.4706C14.2433 36.5929 14.4056 36.667 14.5781 36.6793C14.7506 36.6915 14.9218 36.6412 15.0602 36.5374L16.5985 35.3835C16.9578 35.6077 17.335 35.8089 17.7151 35.9971L15.3627 38.3496C15.2279 38.4843 15.1522 38.667 15.1521 38.8576V40.3967C14.4748 40.5716 13.8845 40.9875 13.4919 41.5664C13.0993 42.1454 12.9313 42.8477 13.0194 43.5417C13.1076 44.2357 13.4458 44.8737 13.9707 45.3361C14.4956 45.7985 15.1711 46.0537 15.8707 46.0537C16.5702 46.0537 17.2457 45.7985 17.7706 45.3361C18.2955 44.8737 18.6337 44.2357 18.7219 43.5417C18.81 42.8477 18.642 42.1454 18.2494 41.5664C17.8568 40.9875 17.2665 40.5716 16.5892 40.3967V39.1551L19.1436 36.6007C19.6317 36.7798 20.1298 36.9307 20.6352 37.0526L20.9076 38.9596C20.9321 39.1308 21.0176 39.2873 21.1482 39.4006C21.2789 39.5138 21.446 39.5761 21.6189 39.5761H25.9301C26.103 39.5761 26.2701 39.5138 26.4008 39.4006C26.5314 39.2873 26.6169 39.1308 26.6414 38.9596L26.9138 37.0526C27.4192 36.9307 27.9173 36.7798 28.4054 36.6007L30.9598 39.1551V40.3967C30.2825 40.5716 29.6922 40.9875 29.2996 41.5664C28.907 42.1454 28.739 42.8477 28.8271 43.5417C28.9153 44.2357 29.2535 44.8737 29.7784 45.3361C30.3033 45.7985 30.9788 46.0537 31.6783 46.0537C32.3779 46.0537 33.0534 45.7985 33.5783 45.3361C34.1032 44.8737 34.4414 44.2357 34.5296 43.5417C34.6177 42.8477 34.4497 42.1454 34.0571 41.5664C33.6645 40.9875 33.0742 40.5716 32.3969 40.3967V38.8576C32.3968 38.667 32.3211 38.4843 32.1863 38.3496L29.8339 35.9971C30.214 35.8089 30.5876 35.6077 30.9505 35.3835L32.4888 36.5374C32.6272 36.6412 32.7984 36.6915 32.9709 36.6793C33.1434 36.667 33.3057 36.5929 33.428 36.4706L34.444 35.4539L39.4622 40.4721C38.9692 41.2169 38.7704 42.1183 38.9044 43.0014C39.0383 43.8845 39.4955 44.6863 40.1871 45.2515C40.8788 45.8166 41.7557 46.1047 42.6478 46.0599C43.5399 46.0151 44.3835 45.6406 45.0151 45.009C45.6466 44.3774 46.0211 43.5338 46.066 42.6417C46.1108 41.7497 45.8227 40.8727 45.2575 40.1811C44.6924 39.4894 43.8905 39.0322 43.0075 38.8983C42.1244 38.7643 41.223 38.9631 40.4782 39.4561L35.46 34.4379L36.4767 33.4219C36.599 33.2996 36.6731 33.1373 36.6853 32.9648C36.6976 32.7923 36.6473 32.6211 36.5435 32.4828L35.3896 30.9437C35.6137 30.5844 35.8149 30.2072 36.0032 29.8278L38.3557 32.1803C38.4904 32.315 38.6731 32.3908 38.8637 32.3908H40.4027C40.5776 33.0681 40.9935 33.6584 41.5725 34.051C42.1515 34.4437 42.8538 34.6116 43.5478 34.5235C44.2417 34.4353 44.8797 34.0971 45.3422 33.5722C45.8046 33.0473 46.0597 32.3718 46.0597 31.6723C46.0597 30.9727 45.8046 30.2972 45.3422 29.7723C44.8797 29.2474 44.2417 28.9092 43.5478 28.8211C42.8538 28.7329 42.1515 28.9009 41.5725 29.2935C40.9935 29.6861 40.5776 30.2764 40.4027 30.9537H39.1611L36.6068 28.3994C36.7858 27.9112 36.9367 27.4132 37.0587 26.9077L38.9657 26.6354C39.1368 26.6108 39.2934 26.5254 39.4066 26.3947C39.5199 26.264 39.5822 26.0969 39.5822 25.924V21.6128C39.5822 21.4399 39.5199 21.2728 39.4066 21.1421C39.2934 21.0115 39.1368 20.926 38.9657 20.9015L37.0587 20.6292C36.9367 20.1237 36.7858 19.6257 36.6068 19.1375L39.1611 16.5831H40.4027C40.5776 17.2604 40.9935 17.8507 41.5725 18.2434C42.1515 18.636 42.8538 18.8039 43.5478 18.7158C44.2417 18.6277 44.8797 18.2894 45.3422 17.7645C45.8046 17.2397 46.0597 16.5641 46.0597 15.8646C46.0597 15.165 45.8046 14.4895 45.3422 13.9646C44.8797 13.4397 44.2417 13.1015 43.5478 13.0134C42.8538 12.9252 42.1515 13.0932 41.5725 13.4858C40.9935 13.8784 40.5776 14.4687 40.4027 15.1461H38.8637C38.6731 15.1461 38.4904 15.2218 38.3557 15.3566L36.0032 17.7091C35.8149 17.3289 35.6137 16.9553 35.3896 16.5925L36.5435 15.0541C36.6473 14.9157 36.6976 14.7446 36.6853 14.5721C36.6731 14.3995 36.599 14.2372 36.4767 14.115L35.46 13.099L40.4782 8.08073C41.0641 8.47089 41.7524 8.67913 42.4563 8.67927ZM30.2413 4.36808C30.2413 4.08386 30.3256 3.80602 30.4835 3.56969C30.6414 3.33337 30.8658 3.14918 31.1284 3.04041C31.391 2.93164 31.6799 2.90318 31.9587 2.95863C32.2375 3.01408 32.4935 3.15095 32.6945 3.35193C32.8955 3.5529 33.0323 3.80896 33.0878 4.08773C33.1432 4.36649 33.1148 4.65543 33.006 4.91802C32.8972 5.18061 32.7131 5.40505 32.4767 5.56296C32.2404 5.72086 31.9626 5.80514 31.6783 5.80514C31.2972 5.80514 30.9317 5.65374 30.6622 5.38424C30.3927 5.11474 30.2413 4.74921 30.2413 4.36808ZM14.4336 4.36808C14.4336 4.08386 14.5179 3.80602 14.6758 3.56969C14.8337 3.33337 15.0581 3.14918 15.3207 3.04041C15.5833 2.93164 15.8723 2.90318 16.151 2.95863C16.4298 3.01408 16.6858 3.15095 16.8868 3.35193C17.0878 3.5529 17.2247 3.80896 17.2801 4.08773C17.3356 4.36649 17.3071 4.65543 17.1983 4.91802C17.0896 5.18061 16.9054 5.40505 16.6691 5.56296C16.4327 5.72086 16.1549 5.80514 15.8707 5.80514C15.4895 5.80514 15.124 5.65374 14.8545 5.38424C14.585 5.11474 14.4336 4.74921 14.4336 4.36808ZM5.09269 7.24221C4.66636 7.24221 4.24959 7.11578 3.89511 6.87892C3.54062 6.64206 3.26434 6.30541 3.10118 5.91152C2.93803 5.51764 2.89534 5.08422 2.97852 4.66608C3.06169 4.24793 3.26699 3.86384 3.56846 3.56238C3.86992 3.26091 4.25401 3.05561 4.67216 2.97244C5.0903 2.88926 5.52372 2.93195 5.9176 3.0951C6.31149 3.25826 6.64814 3.53454 6.885 3.88903C7.12186 4.24352 7.24829 4.66028 7.24829 5.08661C7.24829 5.65831 7.02118 6.2066 6.61693 6.61085C6.21268 7.0151 5.66439 7.24221 5.09269 7.24221ZM4.37416 17.3016C4.08994 17.3016 3.8121 17.2174 3.57577 17.0595C3.33945 16.9016 3.15526 16.6771 3.04649 16.4145C2.93772 16.1519 2.90926 15.863 2.96471 15.5842C3.02016 15.3055 3.15703 15.0494 3.35801 14.8484C3.55898 14.6474 3.81504 14.5106 4.09381 14.4551C4.37257 14.3997 4.66151 14.4281 4.9241 14.5369C5.18669 14.6457 5.41113 14.8299 5.56904 15.0662C5.72694 15.3025 5.81122 15.5804 5.81122 15.8646C5.81122 16.2457 5.65982 16.6112 5.39032 16.8807C5.12082 17.1502 4.75529 17.3016 4.37416 17.3016ZM4.37416 33.1093C4.08994 33.1093 3.8121 33.0251 3.57577 32.8671C3.33945 32.7092 3.15526 32.4848 3.04649 32.2222C2.93772 31.9596 2.90926 31.6707 2.96471 31.3919C3.02016 31.1131 3.15703 30.8571 3.35801 30.6561C3.55898 30.4551 3.81504 30.3183 4.09381 30.2628C4.37257 30.2074 4.66151 30.2358 4.9241 30.3446C5.18669 30.4534 5.41113 30.6376 5.56904 30.8739C5.72694 31.1102 5.81122 31.388 5.81122 31.6723C5.81122 32.0534 5.65982 32.4189 5.39032 32.6884C5.12082 32.9579 4.75529 33.1093 4.37416 33.1093ZM5.09269 44.6058C4.66636 44.6058 4.24959 44.4794 3.89511 44.2425C3.54062 44.0057 3.26434 43.669 3.10118 43.2751C2.93803 42.8813 2.89534 42.4478 2.97852 42.0297C3.06169 41.6116 3.26699 41.2275 3.56846 40.926C3.86992 40.6245 4.25401 40.4192 4.67216 40.3361C5.0903 40.2529 5.52372 40.2956 5.9176 40.4587C6.31149 40.6219 6.64814 40.8982 6.885 41.2527C7.12186 41.6071 7.24829 42.0239 7.24829 42.4502C7.24829 43.0219 7.02118 43.5702 6.61693 43.9745C6.21268 44.3787 5.66439 44.6058 5.09269 44.6058ZM17.3077 43.1688C17.3077 43.453 17.2234 43.7308 17.0655 43.9672C16.9076 44.2035 16.6832 44.3877 16.4206 44.4964C16.158 44.6052 15.8691 44.6337 15.5903 44.5782C15.3115 44.5228 15.0555 44.3859 14.8545 44.1849C14.6535 43.984 14.5167 43.7279 14.4612 43.4491C14.4058 43.1704 14.4342 42.8814 14.543 42.6188C14.6518 42.3562 14.8359 42.1318 15.0723 41.9739C15.3086 41.816 15.5864 41.7317 15.8707 41.7317C16.2518 41.7317 16.6173 41.8831 16.8868 42.1526C17.1563 42.4221 17.3077 42.7876 17.3077 43.1688ZM33.1154 43.1688C33.1154 43.453 33.0311 43.7308 32.8732 43.9672C32.7153 44.2035 32.4909 44.3877 32.2283 44.4964C31.9657 44.6052 31.6768 44.6337 31.398 44.5782C31.1192 44.5228 30.8632 44.3859 30.6622 44.1849C30.4612 43.984 30.3243 43.7279 30.2689 43.4491C30.2134 43.1704 30.2419 42.8814 30.3507 42.6188C30.4594 42.3562 30.6436 42.1318 30.88 41.9739C31.1163 41.816 31.3941 41.7317 31.6783 41.7317C32.0595 41.7317 32.425 41.8831 32.6945 42.1526C32.964 42.4221 33.1154 42.7876 33.1154 43.1688ZM42.4563 40.2946C42.8826 40.2946 43.2994 40.4211 43.6539 40.6579C44.0084 40.8948 44.2847 41.2314 44.4478 41.6253C44.611 42.0192 44.6537 42.4526 44.5705 42.8708C44.4873 43.2889 44.282 43.673 43.9805 43.9745C43.6791 44.2759 43.295 44.4812 42.8768 44.5644C42.4587 44.6476 42.0253 44.6049 41.6314 44.4417C41.2375 44.2786 40.9009 44.0023 40.664 43.6478C40.4271 43.2933 40.3007 42.8766 40.3007 42.4502C40.3007 41.8785 40.5278 41.3303 40.9321 40.926C41.3363 40.5218 41.8846 40.2946 42.4563 40.2946ZM43.1748 30.2352C43.4591 30.2352 43.7369 30.3195 43.9732 30.4774C44.2096 30.6353 44.3937 30.8597 44.5025 31.1223C44.6113 31.3849 44.6397 31.6739 44.5843 31.9526C44.5288 32.2314 44.392 32.4874 44.191 32.6884C43.99 32.8894 43.734 33.0263 43.4552 33.0817C43.1764 33.1372 42.8875 33.1087 42.6249 32.9999C42.3623 32.8912 42.1379 32.707 41.98 32.4707C41.8221 32.2343 41.7378 31.9565 41.7378 31.6723C41.7378 31.2911 41.8892 30.9256 42.1587 30.6561C42.4282 30.3866 42.7937 30.2352 43.1748 30.2352ZM43.1748 14.4275C43.4591 14.4275 43.7369 14.5118 43.9732 14.6697C44.2096 14.8276 44.3937 15.0521 44.5025 15.3146C44.6113 15.5772 44.6397 15.8662 44.5843 16.1449C44.5288 16.4237 44.392 16.6798 44.191 16.8807C43.99 17.0817 43.734 17.2186 43.4552 17.274C43.1764 17.3295 42.8875 17.301 42.6249 17.1923C42.3623 17.0835 42.1379 16.8993 41.98 16.663C41.8221 16.4266 41.7378 16.1488 41.7378 15.8646C41.7378 15.4834 41.8892 15.1179 42.1587 14.8484C42.4282 14.5789 42.7937 14.4275 43.1748 14.4275ZM38.1451 22.2358V25.3011L36.3603 25.5561C36.2124 25.5773 36.0748 25.6441 35.9666 25.7471C35.8585 25.8501 35.7851 25.9843 35.7567 26.131C35.4478 27.7208 34.8225 29.2323 33.918 30.5758C33.8348 30.6996 33.7922 30.8462 33.796 30.9953C33.7999 31.1444 33.8501 31.2885 33.9396 31.4078L35.0174 32.8485L32.8524 35.0134L31.4154 33.9356C31.2961 33.8461 31.1519 33.796 31.0028 33.7921C30.8537 33.7883 30.7071 33.8309 30.5833 33.9141C29.2395 34.8185 27.7278 35.4437 26.1378 35.7528C25.9911 35.7812 25.8569 35.8545 25.7539 35.9627C25.6509 36.0709 25.5841 36.2085 25.5629 36.3564L25.3071 38.139H22.2419L21.9868 36.3542C21.9656 36.2063 21.8989 36.0687 21.7958 35.9606C21.6928 35.8524 21.5586 35.779 21.412 35.7507C19.822 35.4416 18.3102 34.8163 16.9664 33.9119C16.8426 33.8287 16.696 33.7861 16.547 33.79C16.3979 33.7938 16.2537 33.844 16.1344 33.9335L14.6973 35.0113L12.5295 32.8463L13.6073 31.4057C13.6968 31.2864 13.747 31.1422 13.7508 30.9931C13.7547 30.844 13.712 30.6974 13.6288 30.5736C12.7244 29.2302 12.0991 27.7186 11.7901 26.1288C11.7618 25.9821 11.6884 25.848 11.5802 25.7449C11.472 25.6419 11.3344 25.5752 11.1866 25.554L9.40388 25.3011V22.2358L11.1887 21.9807C11.3366 21.9595 11.4742 21.8928 11.5824 21.7898C11.6905 21.6867 11.7639 21.5526 11.7923 21.4059C12.1014 19.8159 12.7266 18.3041 13.631 16.9603C13.7142 16.8366 13.7568 16.69 13.753 16.5409C13.7491 16.3918 13.6989 16.2476 13.6094 16.1283L12.5316 14.6912L14.6987 12.5241L16.1358 13.6019C16.2551 13.6914 16.3993 13.7416 16.5484 13.7455C16.6975 13.7493 16.8441 13.7067 16.9679 13.6235C18.3114 12.7191 19.8229 12.0938 21.4127 11.7848C21.5594 11.7564 21.6935 11.683 21.7966 11.5748C21.8996 11.4667 21.9663 11.3291 21.9875 11.1812L22.2419 9.3978H25.3071L25.5622 11.1826C25.5834 11.3305 25.6501 11.4681 25.7532 11.5763C25.8562 11.6845 25.9904 11.7578 26.137 11.7862C27.7268 12.0952 29.2384 12.7205 30.5819 13.6249C30.7056 13.7081 30.8522 13.7508 31.0013 13.7469C31.1504 13.743 31.2946 13.6929 31.4139 13.6034L32.8546 12.5256L35.0217 14.6927L33.9439 16.1297C33.8544 16.249 33.8042 16.3932 33.8003 16.5423C33.7965 16.6914 33.8391 16.838 33.9223 16.9618C34.8267 18.3056 35.452 19.8173 35.761 21.4073C35.7894 21.554 35.8628 21.6882 35.971 21.7912C36.0791 21.8942 36.2167 21.961 36.3646 21.9822L38.1451 22.2358ZM42.4563 2.93102C42.8826 2.93102 43.2994 3.05744 43.6539 3.2943C44.0084 3.53116 44.2847 3.86782 44.4478 4.2617C44.611 4.65559 44.6537 5.089 44.5705 5.50715C44.4873 5.92529 44.282 6.30938 43.9805 6.61085C43.6791 6.91231 43.295 7.11761 42.8768 7.20079C42.4587 7.28396 42.0253 7.24127 41.6314 7.07812C41.2375 6.91497 40.9009 6.63868 40.664 6.2842C40.4271 5.92971 40.3007 5.51295 40.3007 5.08661C40.3007 4.51491 40.5278 3.96663 40.9321 3.56238C41.3363 3.15813 41.8846 2.93102 42.4563 2.93102Z" fill="white"/>
</g>
<defs>
<clipPath id="clip0_2007_21">
<rect width="45.986" height="45.986" fill="white" transform="translate(0.78125 0.775391)"/>
</clipPath>
</defs>
</svg>
