<svg width="40" height="39" viewBox="0 0 40 39" fill="none" xmlns="http://www.w3.org/2000/svg">
<g clip-path="url(#clip0_2007_65)">
<path d="M34.8664 35.1006H27.6908C27.5322 35.1006 27.3801 35.0376 27.268 34.9254C27.1559 34.8133 27.0929 34.6612 27.0929 34.5026C27.0929 34.344 27.1559 34.1919 27.268 34.0798C27.3801 33.9676 27.5322 33.9046 27.6908 33.9046H34.2685V1.61439H5.56605V33.9046H21.7112C21.8698 33.9046 22.0219 33.9676 22.134 34.0798C22.2461 34.1919 22.3091 34.344 22.3091 34.5026C22.3091 34.6612 22.2461 34.8133 22.134 34.9254C22.0219 35.0376 21.8698 35.1006 21.7112 35.1006H4.96808C4.80949 35.1006 4.6574 35.0376 4.54526 34.9254C4.43312 34.8133 4.37012 34.6612 4.37012 34.5026V1.01642C4.37012 0.857833 4.43312 0.705738 4.54526 0.593598C4.6574 0.481457 4.80949 0.418457 4.96808 0.418457L34.8664 0.418457C35.025 0.418457 35.1771 0.481457 35.2893 0.593598C35.4014 0.705738 35.4644 0.857833 35.4644 1.01642V34.5026C35.4644 34.6612 35.4014 34.8133 35.2893 34.9254C35.1771 35.0376 35.025 35.1006 34.8664 35.1006Z" fill="white"/>
<path d="M30.6804 32.7085H27.6906C27.532 32.7085 27.3799 32.6455 27.2677 32.5334C27.1556 32.4213 27.0926 32.2692 27.0926 32.1106C27.0926 31.952 27.1556 31.7999 27.2677 31.6877C27.3799 31.5756 27.532 31.5126 27.6906 31.5126H30.1578C30.2655 31.0992 30.4815 30.722 30.7836 30.4199C31.0857 30.1178 31.4629 29.9017 31.8763 29.794V5.72467C31.4629 5.61698 31.0857 5.40095 30.7836 5.09885C30.4815 4.79676 30.2655 4.41954 30.1578 4.00611H9.67621C9.56852 4.41954 9.35249 4.79676 9.05039 5.09885C8.7483 5.40095 8.37108 5.61698 7.95765 5.72467V29.794C8.37108 29.9017 8.7483 30.1178 9.05039 30.4199C9.35249 30.722 9.56852 31.0992 9.67621 31.5126H21.7109C21.8695 31.5126 22.0216 31.5756 22.1337 31.6877C22.2459 31.7999 22.3089 31.952 22.3089 32.1106C22.3089 32.2692 22.2459 32.4213 22.1337 32.5334C22.0216 32.6455 21.8695 32.7085 21.7109 32.7085H9.15359C8.995 32.7085 8.8429 32.6455 8.73076 32.5334C8.61862 32.4213 8.55562 32.2692 8.55562 32.1106C8.55562 31.7934 8.42962 31.4892 8.20534 31.2649C7.98106 31.0406 7.67687 30.9146 7.35969 30.9146C7.2011 30.9146 7.049 30.8516 6.93686 30.7395C6.82472 30.6274 6.76172 30.4753 6.76172 30.3167V5.20205C6.76172 5.04346 6.82472 4.89136 6.93686 4.77922C7.049 4.66708 7.2011 4.60408 7.35969 4.60408C7.67687 4.60408 7.98106 4.47808 8.20534 4.2538C8.42962 4.02952 8.55562 3.72533 8.55562 3.40815C8.55562 3.24956 8.61862 3.09746 8.73076 2.98532C8.8429 2.87318 8.995 2.81018 9.15359 2.81018H30.6804C30.839 2.81018 30.9911 2.87318 31.1032 2.98532C31.2154 3.09746 31.2784 3.24956 31.2784 3.40815C31.2784 3.72533 31.4044 4.02952 31.6287 4.2538C31.8529 4.47808 32.1571 4.60408 32.4743 4.60408C32.6329 4.60408 32.785 4.66708 32.8971 4.77922C33.0093 4.89136 33.0723 5.04346 33.0723 5.20205V30.3167C33.0723 30.4753 33.0093 30.6274 32.8971 30.7395C32.785 30.8516 32.6329 30.9146 32.4743 30.9146C32.1571 30.9146 31.8529 31.0406 31.6287 31.2649C31.4044 31.4892 31.2784 31.7934 31.2784 32.1106C31.2784 32.2692 31.2154 32.4213 31.1032 32.5334C30.9911 32.6455 30.839 32.7085 30.6804 32.7085Z" fill="white"/>
<path d="M24.8991 9.98595C24.8092 9.98578 24.7205 9.96534 24.6396 9.92615C23.1299 9.36963 21.5258 9.11447 19.918 9.1751C18.3094 9.11415 16.7045 9.36932 15.1941 9.92615C15.1199 9.96187 15.0392 9.9819 14.9569 9.98497C14.8747 9.98805 14.7927 9.97411 14.716 9.94402C14.6394 9.91393 14.5698 9.86835 14.5116 9.81012C14.4534 9.75189 14.4079 9.68228 14.3779 9.60564L13.3793 7.06189C13.3216 6.91513 13.3243 6.75156 13.3867 6.60676C13.4491 6.46196 13.5661 6.34765 13.7123 6.28872C15.6956 5.54469 17.8 5.17625 19.918 5.20221C22.0353 5.17674 24.1389 5.54538 26.1213 6.28931C26.2676 6.34825 26.3846 6.46256 26.447 6.60735C26.5094 6.75215 26.512 6.91573 26.4544 7.06249L25.4558 9.60624C25.4119 9.71815 25.3353 9.81425 25.236 9.88198C25.1367 9.94972 25.0193 9.98595 24.8991 9.98595ZM19.918 7.97917C21.4897 7.94751 23.0568 8.16054 24.563 8.61062L25.1186 7.19523C23.4391 6.65196 21.6831 6.38282 19.918 6.39814C18.1525 6.38185 16.3959 6.65019 14.7157 7.19284L15.2712 8.60823C16.7782 8.15878 18.3458 7.94655 19.918 7.97917Z" fill="white"/>
<path d="M11.5456 12.3778C11.387 12.3778 11.2349 12.3148 11.1228 12.2026C11.0106 12.0905 10.9476 11.9384 10.9476 11.7798V10.8314L9.92688 9.81069C9.85708 9.74082 9.80568 9.65476 9.77725 9.56017C9.74883 9.46559 9.74428 9.36544 9.764 9.26867C9.78372 9.1719 9.8271 9.08152 9.89027 9.0056C9.95344 8.92968 10.0344 8.8706 10.126 8.83362C11.5086 8.27346 12.9587 7.89692 14.4391 7.71362C14.5966 7.69443 14.7553 7.73859 14.8802 7.83638C15.0051 7.93416 15.0861 8.07757 15.1053 8.23505C15.1245 8.39253 15.0803 8.55118 14.9825 8.67611C14.8847 8.80103 14.7413 8.882 14.5839 8.90119C13.5109 9.0341 12.4544 9.27737 11.4314 9.62712L11.9695 10.1653C12.0802 10.2766 12.1427 10.4269 12.1435 10.5839V10.9074C13.3103 10.5708 14.5171 10.3926 15.7314 10.3776V9.38793C15.7314 9.22934 15.7944 9.07724 15.9065 8.9651C16.0186 8.85296 16.1707 8.78996 16.3293 8.78996C16.4879 8.78996 16.64 8.85296 16.7521 8.9651C16.8643 9.07724 16.9273 9.22934 16.9273 9.38793V10.9666C16.9273 11.1252 16.8643 11.2773 16.7521 11.3894C16.64 11.5015 16.4879 11.5645 16.3293 11.5645C14.7857 11.5028 13.2459 11.7592 11.8057 12.318C11.7245 12.3571 11.6357 12.3775 11.5456 12.3778Z" fill="white"/>
<path d="M28.2889 12.3778C28.1988 12.3775 28.11 12.3571 28.0288 12.318C26.5886 11.7593 25.0488 11.5028 23.5052 11.5645C23.3466 11.5645 23.1945 11.5015 23.0824 11.3894C22.9702 11.2773 22.9072 11.1252 22.9072 10.9666V9.38794C22.9072 9.22935 22.9702 9.07725 23.0824 8.96511C23.1945 8.85297 23.3466 8.78997 23.5052 8.78997C23.6638 8.78997 23.8159 8.85297 23.928 8.96511C24.0402 9.07725 24.1032 9.22935 24.1032 9.38794V10.3776C25.3174 10.3927 26.5242 10.5708 27.691 10.9074V10.5839C27.691 10.4253 27.754 10.2732 27.8662 10.1611L28.4043 9.62294C27.3811 9.2734 26.3244 9.03053 25.2513 8.8982C25.1733 8.88862 25.098 8.86378 25.0296 8.82509C24.9612 8.7864 24.9011 8.73462 24.8528 8.67271C24.8044 8.61079 24.7687 8.53996 24.7477 8.46425C24.7267 8.38855 24.7208 8.30945 24.7304 8.23147C24.74 8.15349 24.7649 8.07817 24.8035 8.00979C24.8422 7.94142 24.894 7.88133 24.9559 7.83297C25.0178 7.78461 25.0887 7.74891 25.1644 7.72792C25.2401 7.70693 25.3192 7.70106 25.3972 7.71064C26.8774 7.89494 28.3272 8.27207 29.7097 8.83243C29.8013 8.86941 29.8823 8.9285 29.9454 9.00441C30.0086 9.08033 30.052 9.17071 30.0717 9.26748C30.0914 9.36425 30.0869 9.4644 30.0585 9.55899C30.03 9.65357 29.9786 9.73964 29.9088 9.80951L28.8869 10.8314V11.7798C28.8869 11.9384 28.8239 12.0905 28.7118 12.2026C28.5996 12.3148 28.4475 12.3778 28.2889 12.3778Z" fill="white"/>
<path d="M24.7005 33.9045C24.3486 33.9071 24.0048 33.7994 23.7174 33.5964C23.4299 33.3935 23.2133 33.1056 23.0979 32.7732C23.0743 32.7066 23.0369 32.6458 22.9882 32.5946C22.9395 32.5434 22.8806 32.503 22.8154 32.476C22.7501 32.449 22.6799 32.4361 22.6093 32.4379C22.5387 32.4397 22.4693 32.4564 22.4055 32.4867C22.0882 32.6376 21.732 32.6865 21.3859 32.6268C21.0397 32.5671 20.7205 32.4017 20.4721 32.1533C20.2236 31.9049 20.0582 31.5857 19.9985 31.2395C19.9388 30.8933 19.9878 30.5371 20.1386 30.2199C20.169 30.1561 20.1856 30.0867 20.1875 30.016C20.1893 29.9454 20.1763 29.8752 20.1493 29.81C20.1223 29.7447 20.0819 29.6858 20.0307 29.6372C19.9795 29.5885 19.9187 29.5511 19.8522 29.5274C19.5212 29.4098 19.2347 29.1927 19.0321 28.9057C18.8295 28.6188 18.7207 28.2761 18.7207 27.9249C18.7207 27.5736 18.8295 27.2309 19.0321 26.944C19.2347 26.657 19.5212 26.4399 19.8522 26.3223C19.9187 26.2986 19.9795 26.2612 20.0307 26.2126C20.0819 26.1639 20.1223 26.105 20.1493 26.0397C20.1763 25.9745 20.1893 25.9043 20.1875 25.8337C20.1856 25.7631 20.169 25.6936 20.1386 25.6299C19.9878 25.3126 19.9388 24.9564 19.9985 24.6102C20.0582 24.264 20.2236 23.9448 20.4721 23.6964C20.7205 23.448 21.0397 23.2826 21.3859 23.2229C21.732 23.1632 22.0882 23.2121 22.4055 23.363C22.4693 23.3933 22.5387 23.41 22.6093 23.4118C22.6799 23.4137 22.7501 23.4007 22.8154 23.3737C22.8806 23.3467 22.9395 23.3063 22.9882 23.2551C23.0369 23.2039 23.0743 23.1431 23.0979 23.0765C23.2155 22.7455 23.4327 22.459 23.7196 22.2564C24.0066 22.0538 24.3492 21.9451 24.7005 21.9451C25.0518 21.9451 25.3944 22.0538 25.6814 22.2564C25.9683 22.459 26.1855 22.7455 26.303 23.0765C26.3267 23.1431 26.3641 23.2039 26.4128 23.2551C26.4615 23.3063 26.5203 23.3467 26.5856 23.3737C26.6509 23.4007 26.7211 23.4137 26.7917 23.4118C26.8623 23.41 26.9317 23.3933 26.9955 23.363C27.3128 23.2121 27.6689 23.1632 28.0151 23.2229C28.3613 23.2826 28.6805 23.448 28.9289 23.6964C29.1773 23.9448 29.3427 24.264 29.4025 24.6102C29.4622 24.9564 29.4132 25.3126 29.2624 25.6299C29.232 25.6936 29.2154 25.7631 29.2135 25.8337C29.2117 25.9043 29.2247 25.9745 29.2517 26.0397C29.2787 26.105 29.3191 26.1639 29.3703 26.2126C29.4214 26.2612 29.4823 26.2986 29.5488 26.3223C29.8798 26.4399 30.1663 26.657 30.3689 26.944C30.5715 27.2309 30.6803 27.5736 30.6803 27.9249C30.6803 28.2761 30.5715 28.6188 30.3689 28.9057C30.1663 29.1927 29.8798 29.4098 29.5488 29.5274C29.4823 29.5511 29.4214 29.5885 29.3703 29.6372C29.3191 29.6858 29.2787 29.7447 29.2517 29.81C29.2247 29.8752 29.2117 29.9454 29.2135 30.016C29.2154 30.0867 29.232 30.1561 29.2624 30.2199C29.4132 30.5371 29.4622 30.8933 29.4025 31.2395C29.3427 31.5857 29.1773 31.9049 28.9289 32.1533C28.6805 32.4017 28.3613 32.5671 28.0151 32.6268C27.6689 32.6865 27.3128 32.6376 26.9955 32.4867C26.9317 32.4564 26.8623 32.4397 26.7917 32.4379C26.7211 32.4361 26.6509 32.449 26.5856 32.476C26.5203 32.503 26.4615 32.5434 26.4128 32.5946C26.3641 32.6458 26.3267 32.7066 26.303 32.7732C26.1877 33.1056 25.9711 33.3935 25.6836 33.5964C25.3962 33.7994 25.0523 33.9071 24.7005 33.9045ZM22.622 31.2418C22.9732 31.242 23.3157 31.3507 23.6027 31.5531C23.8897 31.7556 24.1071 32.0418 24.2251 32.3725C24.2598 32.4709 24.3242 32.5561 24.4093 32.6163C24.4944 32.6766 24.5962 32.709 24.7005 32.709C24.8048 32.709 24.9065 32.6766 24.9917 32.6163C25.0768 32.5561 25.1412 32.4709 25.1759 32.3725C25.2558 32.1485 25.3818 31.9438 25.5457 31.7715C25.7096 31.5991 25.9078 31.4631 26.1275 31.372C26.3473 31.281 26.5836 31.237 26.8214 31.2429C27.0591 31.2488 27.293 31.3044 27.5079 31.4062C27.602 31.4511 27.7076 31.4659 27.8103 31.4484C27.913 31.4309 28.0077 31.382 28.0816 31.3085C28.1554 31.235 28.2047 31.1404 28.2226 31.0378C28.2406 30.9352 28.2263 30.8295 28.1819 30.7353C28.0801 30.5204 28.0244 30.2865 28.0185 30.0487C28.0126 29.811 28.0566 29.5746 28.1477 29.3549C28.2387 29.1352 28.3748 28.937 28.5471 28.7731C28.7194 28.6092 28.9242 28.4832 29.1482 28.4032C29.2465 28.3685 29.3317 28.3042 29.392 28.219C29.4522 28.1339 29.4846 28.0322 29.4846 27.9278C29.4846 27.8235 29.4522 27.7218 29.392 27.6367C29.3317 27.5515 29.2465 27.4872 29.1482 27.4525C28.9242 27.3725 28.7194 27.2465 28.5471 27.0826C28.3748 26.9187 28.2387 26.7205 28.1477 26.5008C28.0566 26.2811 28.0126 26.0447 28.0185 25.807C28.0244 25.5692 28.0801 25.3353 28.1819 25.1204C28.2278 25.0263 28.2433 24.9202 28.2263 24.8169C28.2093 24.7135 28.1605 24.618 28.0868 24.5437C28.0131 24.4693 27.918 24.4197 27.8148 24.4017C27.7117 24.3838 27.6055 24.3984 27.5109 24.4435C27.296 24.5453 27.0621 24.6009 26.8244 24.6068C26.5866 24.6127 26.3503 24.5687 26.1305 24.4777C25.9108 24.3866 25.7126 24.2506 25.5487 24.0782C25.3848 23.9059 25.2588 23.7012 25.1789 23.4772C25.1442 23.3788 25.0798 23.2936 24.9947 23.2334C24.9095 23.1731 24.8078 23.1408 24.7035 23.1408C24.5992 23.1408 24.4974 23.1731 24.4123 23.2334C24.3271 23.2936 24.2628 23.3788 24.2281 23.4772C24.1482 23.7012 24.0222 23.9059 23.8583 24.0782C23.6943 24.2506 23.4961 24.3866 23.2764 24.4777C23.0567 24.5687 22.8204 24.6127 22.5826 24.6068C22.3448 24.6009 22.111 24.5453 21.896 24.4435C21.8019 24.3975 21.6958 24.382 21.5925 24.399C21.4892 24.4161 21.3937 24.4648 21.3193 24.5386C21.2449 24.6123 21.1953 24.7073 21.1774 24.8105C21.1594 24.9137 21.174 25.0199 21.2191 25.1144C21.3209 25.3293 21.3766 25.5632 21.3825 25.801C21.3883 26.0387 21.3443 26.2751 21.2533 26.4948C21.1623 26.7145 21.0262 26.9127 20.8539 27.0766C20.6816 27.2406 20.4768 27.3665 20.2528 27.4465C20.1544 27.4812 20.0693 27.5455 20.009 27.6307C19.9488 27.7158 19.9164 27.8176 19.9164 27.9219C19.9164 28.0262 19.9488 28.1279 20.009 28.2131C20.0693 28.2982 20.1544 28.3626 20.2528 28.3973C20.4768 28.4772 20.6816 28.6032 20.8539 28.7671C21.0262 28.931 21.1623 29.1292 21.2533 29.3489C21.3443 29.5686 21.3883 29.805 21.3825 30.0427C21.3766 30.2805 21.3209 30.5144 21.2191 30.7293C21.1732 30.8234 21.1576 30.9295 21.1747 31.0328C21.1917 31.1362 21.2405 31.2317 21.3142 31.306C21.3879 31.3804 21.483 31.43 21.5861 31.448C21.6893 31.4659 21.7955 31.4513 21.89 31.4062C22.1187 31.2976 22.3688 31.2415 22.622 31.2418Z" fill="white"/>
<path d="M27.6909 38.6883C27.5551 38.6884 27.4233 38.6422 27.3172 38.5573L24.7011 36.4645L22.085 38.5573C21.997 38.6278 21.891 38.6719 21.779 38.6847C21.6671 38.6974 21.5538 38.6783 21.4522 38.6295C21.3507 38.5807 21.265 38.5042 21.205 38.4088C21.145 38.3134 21.1132 38.203 21.1133 38.0903V32.1107C21.1133 31.9521 21.1763 31.8 21.2884 31.6878C21.4006 31.5757 21.5527 31.5127 21.7112 31.5127C21.8698 31.5127 22.0219 31.5757 22.1341 31.6878C22.2462 31.8 22.3092 31.9521 22.3092 32.1107V36.846L24.3274 35.2315C24.4334 35.1465 24.5652 35.1003 24.7011 35.1003C24.8369 35.1003 24.9688 35.1465 25.0748 35.2315L27.093 36.846V32.1107C27.093 31.9521 27.156 31.8 27.2681 31.6878C27.3802 31.5757 27.5323 31.5127 27.6909 31.5127C27.8495 31.5127 28.0016 31.5757 28.1137 31.6878C28.2259 31.8 28.2889 31.9521 28.2889 32.1107V38.0903C28.2889 38.2489 28.2259 38.401 28.1137 38.5132C28.0016 38.6253 27.8495 38.6883 27.6909 38.6883Z" fill="white"/>
<path d="M24.7008 30.9147C24.1094 30.9147 23.5314 30.7394 23.0397 30.4109C22.548 30.0823 22.1648 29.6154 21.9385 29.0691C21.7122 28.5227 21.653 27.9216 21.7684 27.3416C21.8838 26.7616 22.1685 26.2289 22.5866 25.8108C23.0048 25.3926 23.5375 25.1079 24.1175 24.9925C24.6975 24.8771 25.2986 24.9364 25.8449 25.1626C26.3913 25.3889 26.8582 25.7722 27.1867 26.2638C27.5153 26.7555 27.6906 27.3336 27.6906 27.9249C27.6897 28.7176 27.3744 29.4775 26.8139 30.038C26.2534 30.5985 25.4934 30.9138 24.7008 30.9147ZM24.7008 26.131C24.346 26.131 23.9991 26.2362 23.7041 26.4333C23.4091 26.6304 23.1792 26.9106 23.0434 27.2384C22.9077 27.5662 22.8721 27.9269 22.9413 28.2749C23.0106 28.6229 23.1814 28.9425 23.4323 29.1934C23.6832 29.4443 24.0028 29.6151 24.3508 29.6843C24.6988 29.7535 25.0595 29.718 25.3873 29.5822C25.7151 29.4465 25.9952 29.2165 26.1923 28.9215C26.3895 28.6265 26.4947 28.2797 26.4947 27.9249C26.4947 27.4491 26.3057 26.9928 25.9693 26.6564C25.6328 26.32 25.1765 26.131 24.7008 26.131Z" fill="white"/>
<path d="M28.8866 14.7697H10.9476C10.789 14.7697 10.6369 14.7067 10.5247 14.5945C10.4126 14.4824 10.3496 14.3303 10.3496 14.1717C10.3496 14.0131 10.4126 13.861 10.5247 13.7489C10.6369 13.6367 10.789 13.5737 10.9476 13.5737H28.8866C29.0452 13.5737 29.1973 13.6367 29.3094 13.7489C29.4216 13.861 29.4846 14.0131 29.4846 14.1717C29.4846 14.3303 29.4216 14.4824 29.3094 14.5945C29.1973 14.7067 29.0452 14.7697 28.8866 14.7697Z" fill="white"/>
<path d="M28.2893 17.7594H11.5462C11.3876 17.7594 11.2355 17.6964 11.1234 17.5843C11.0112 17.4721 10.9482 17.32 10.9482 17.1614C10.9482 17.0029 11.0112 16.8508 11.1234 16.7386C11.2355 16.6265 11.3876 16.5635 11.5462 16.5635H28.2893C28.4479 16.5635 28.6 16.6265 28.7121 16.7386C28.8243 16.8508 28.8873 17.0029 28.8873 17.1614C28.8873 17.32 28.8243 17.4721 28.7121 17.5843C28.6 17.6964 28.4479 17.7594 28.2893 17.7594Z" fill="white"/>
<path d="M27.691 20.7493H12.1439C11.9853 20.7493 11.8332 20.6863 11.721 20.5741C11.6089 20.462 11.5459 20.3099 11.5459 20.1513C11.5459 19.9927 11.6089 19.8406 11.721 19.7285C11.8332 19.6163 11.9853 19.5533 12.1439 19.5533H27.691C27.8496 19.5533 28.0017 19.6163 28.1138 19.7285C28.226 19.8406 28.289 19.9927 28.289 20.1513C28.289 20.3099 28.226 20.462 28.1138 20.5741C28.0017 20.6863 27.8496 20.7493 27.691 20.7493Z" fill="white"/>
<path d="M13.7392 27.327C13.5591 27.335 13.3795 27.3023 13.2138 27.2312C13.0481 27.16 12.9007 27.0523 12.7825 26.9162C12.6461 26.7377 12.5768 26.5168 12.5869 26.2924C12.5969 26.0679 12.6857 25.8541 12.8375 25.6885C12.998 25.5101 13.1872 25.3597 13.3972 25.2437C13.5042 25.1767 13.5682 25.133 13.6071 25.1031C13.472 25.0038 13.3101 24.9473 13.1425 24.9411C12.89 24.9265 12.6368 24.9503 12.3914 25.0116C11.4544 25.2173 10.4977 26.2165 10.1831 26.5442C10.0721 26.6523 9.92349 26.7131 9.76854 26.7138C9.61359 26.7145 9.46443 26.655 9.35249 26.5479C9.24054 26.4407 9.17456 26.2943 9.16844 26.1395C9.16232 25.9846 9.21654 25.8335 9.31967 25.7178C10.0628 24.8403 11.0387 24.1905 12.1349 23.8432C12.4981 23.7558 12.8726 23.7244 13.2453 23.7499C13.6787 23.7748 14.0923 23.9397 14.4239 24.2199C14.6244 24.3902 14.7612 24.6234 14.8119 24.8815C14.8627 25.1396 14.8243 25.4072 14.7032 25.6407C14.6357 25.7589 14.5497 25.8655 14.4484 25.9564C14.7092 25.8697 14.9866 25.7627 15.2778 25.6521C16.1762 25.2459 17.1399 25.0031 18.1235 24.9351C18.2821 24.9351 18.4342 24.9981 18.5464 25.1102C18.6585 25.2224 18.7215 25.3745 18.7215 25.5331C18.7215 25.6917 18.6585 25.8438 18.5464 25.9559C18.4342 26.068 18.2821 26.131 18.1235 26.131C17.2871 26.2037 16.4693 26.4195 15.706 26.7691C15.2659 26.9377 14.8503 27.0962 14.4502 27.2074C14.2199 27.2798 13.9806 27.3201 13.7392 27.327Z" fill="white"/>
</g>
<defs>
<clipPath id="clip0_2007_65">
<rect width="38.2699" height="38.2699" fill="white" transform="translate(0.782227 0.418457)"/>
</clipPath>
</defs>
</svg>
