<svg width="41" height="42" viewBox="0 0 41 42" fill="none" xmlns="http://www.w3.org/2000/svg">
<g clip-path="url(#clip0_2007_87)">
<path d="M33.48 38.1057H18.4799C18.1372 38.1057 17.8642 37.8327 17.8642 37.4899C17.8642 37.1472 18.1372 36.8742 18.4799 36.8742H32.8643V1.81474H11.0148C10.9132 1.81474 10.818 1.82109 10.7101 1.82744C9.14218 1.97979 7.96782 3.28111 7.96782 4.86174V33.8209C7.96782 35.3951 9.14853 36.7028 10.7101 36.8615C10.8117 36.8742 10.9069 36.8742 11.0148 36.8742H13.7444C14.0872 36.8742 14.3602 37.1472 14.3602 37.4899C14.3602 37.8327 14.0872 38.1057 13.7444 38.1057H11.0148C10.8688 38.1057 10.7355 38.0993 10.5895 38.0866C8.39313 37.8645 6.73633 36.0363 6.73633 33.8209V4.86174C6.73633 2.64632 8.39313 0.818124 10.5895 0.602296C10.7355 0.5896 10.8752 0.583252 11.0148 0.583252H33.4737C33.8165 0.583252 34.0894 0.856212 34.0894 1.199V37.4899C34.0958 37.8327 33.8165 38.1057 33.48 38.1057Z" fill="white"/>
<path d="M18.4738 41.2098C18.3088 41.2098 18.1501 41.1463 18.0295 41.0257L16.1061 39.0515L14.1827 41.0257C14.0049 41.2034 13.7447 41.2606 13.5098 41.1653C13.2749 41.0701 13.1289 40.8479 13.1289 40.594V34.043C13.1289 33.7002 13.4019 33.4272 13.7447 33.4272H18.4738C18.8166 33.4272 19.0896 33.7002 19.0896 34.043V40.594C19.0896 40.8416 18.9372 41.0701 18.7087 41.1653C18.6325 41.1971 18.5564 41.2098 18.4738 41.2098ZM16.1124 37.547C16.2775 37.547 16.4362 37.6169 16.5504 37.7311L17.8581 39.0769V34.6587H14.3604V39.0769L15.6681 37.7311C15.7887 37.6169 15.9474 37.547 16.1124 37.547Z" fill="white"/>
<path d="M28.338 19.7348H15.7882C14.1314 19.7348 12.7793 18.3827 12.7793 16.7259V10.4733C12.7793 8.81011 14.1314 7.46436 15.7882 7.46436H28.338C29.9948 7.46436 31.3469 8.81646 31.3469 10.4733V16.7259C31.3469 18.3827 30.0011 19.7348 28.338 19.7348ZM15.7882 8.69585C14.8043 8.69585 14.0108 9.49568 14.0108 10.4733V16.7259C14.0108 17.7099 14.8106 18.5034 15.7882 18.5034H28.338C29.3219 18.5034 30.1154 17.7035 30.1154 16.7259V10.4733C30.1154 9.48934 29.3156 8.69585 28.338 8.69585H15.7882Z" fill="white"/>
<path d="M10.6538 38.0868C10.311 38.0868 10.0381 37.8138 10.0381 37.471V1.21816C10.0381 0.875377 10.311 0.602417 10.6538 0.602417C10.9966 0.602417 11.2696 0.875377 11.2696 1.21816V37.4774C11.2696 37.8138 10.9903 38.0868 10.6538 38.0868Z" fill="white"/>
<path d="M33.4809 32.31H10.6538C10.311 32.31 10.0381 32.037 10.0381 31.6942C10.0381 31.3514 10.311 31.0785 10.6538 31.0785H33.4809C33.8237 31.0785 34.0966 31.3514 34.0966 31.6942C34.0966 32.037 33.8173 32.31 33.4809 32.31Z" fill="white"/>
</g>
<defs>
<clipPath id="clip0_2007_87">
<rect width="40.6266" height="40.6266" fill="white" transform="translate(0.102539 0.583252)"/>
</clipPath>
</defs>
</svg>
