<svg width="44" height="44" viewBox="0 0 44 44" fill="none" xmlns="http://www.w3.org/2000/svg">
<path d="M11.5565 5.70905C11.7407 5.89322 11.9821 5.98486 12.2226 5.98486C12.464 5.98486 12.7044 5.89277 12.8886 5.70905C13.2565 5.34116 13.2565 4.7453 12.8886 4.37741L10.6759 2.16471C10.308 1.79682 9.71217 1.79682 9.34428 2.16471C8.97639 2.5326 8.97639 3.12846 9.34428 3.49635L11.5565 5.70905Z" fill="white"/>
<path d="M31.9308 5.98534C32.1722 5.98534 32.4135 5.89326 32.5977 5.70954L34.8104 3.49684C35.1783 3.12895 35.1783 2.53309 34.8104 2.1652C34.4425 1.79731 33.8467 1.79731 33.4788 2.1652L31.2652 4.3779C30.8973 4.74579 30.8973 5.34165 31.2652 5.70954C31.4489 5.89326 31.6907 5.98534 31.9308 5.98534Z" fill="white"/>
<path d="M21.8055 9.68707C22.6517 9.67098 23.4429 10.0943 23.8917 10.8073C24.0709 11.0925 24.3771 11.2476 24.6896 11.2476C24.8621 11.2476 25.0347 11.2015 25.1911 11.1027C25.6314 10.8256 25.7638 10.2436 25.4866 9.80463C24.6838 8.52931 23.2386 7.75644 21.7536 7.80382C21.2338 7.81768 20.8234 8.25127 20.8373 8.77115C20.8525 9.29013 21.2883 9.65936 21.8055 9.68707Z" fill="white"/>
<path d="M38.5997 11.4223C36.134 11.0186 33.6075 11.0008 31.0757 11.3248C30.7824 9.36604 29.8969 7.55923 28.449 6.14981C26.6677 4.41586 24.3173 3.49233 21.8297 3.56475C17.4128 3.68187 13.7523 7.05813 13.0853 11.3222C10.5244 10.9847 7.87498 11.0168 5.53354 11.4259C4.59839 11.6042 3.94531 12.3919 3.94531 13.3417V38.6595C3.94531 39.039 4.13172 39.3921 4.44686 39.6049C4.6422 39.7372 5.04809 39.8096 5.28411 39.7783L6.22238 39.6393C11.004 38.9491 15.7531 39.3161 20.343 40.7376L21.8034 41.1851C21.8928 41.2119 21.9862 41.2258 22.0792 41.2258C22.1793 41.2258 22.6692 41.0796 22.6692 41.0796C27.5622 39.3859 32.8235 38.8901 37.8912 39.6389C37.8912 39.6389 38.4755 39.6751 38.6641 39.7216C39.0257 39.8114 39.4012 39.8159 39.7119 39.6045C39.9707 39.4297 40.2135 38.9719 40.2135 38.659V13.3413C40.213 12.3914 39.5599 11.6038 38.5997 11.4223ZM21.8802 5.448C21.9468 5.44577 22.0134 5.44577 22.0805 5.44577C23.9812 5.44577 25.7697 6.17037 27.1344 7.49978C28.5487 8.87612 29.3274 10.7209 29.3274 12.694C29.3274 14.7132 28.4754 16.6559 26.9882 18.0242C26.1487 18.7979 25.6865 19.8136 25.6865 20.8855C25.6865 22.0598 24.7308 23.015 23.557 23.015H23.0201V18.0631C23.0201 17.5432 22.5981 17.1212 22.0783 17.1212C21.5584 17.1212 21.1364 17.5432 21.1364 18.0631V23.0146H20.5996C19.4253 23.0146 18.47 22.0589 18.47 20.885C18.47 19.8122 18.0078 18.7966 17.1683 18.0237C15.6655 16.6402 14.813 14.6761 14.8291 12.6337C14.8608 8.77375 18.0234 5.55037 21.8802 5.448ZM22.0814 27.5665C20.8396 27.5665 19.8298 26.5558 19.8298 25.3136V24.8205C20.0792 24.8692 20.3358 24.8983 20.5991 24.8983H23.557C23.8158 24.8983 24.0688 24.8688 24.3138 24.8218V25.3136C24.3138 26.5558 23.312 27.5665 22.0814 27.5665ZM5.94881 37.7748L5.83035 37.7945L5.87282 13.2796C8.04842 12.901 10.5798 12.8755 13.0026 13.2094C13.1385 15.5665 14.1456 17.8042 15.8925 19.4112C16.34 19.8216 16.5859 20.3464 16.5859 20.8855C16.5859 22.0777 17.1182 23.1375 17.9452 23.8733V25.314C17.9452 27.2692 19.3126 28.9017 21.1373 29.3317V39.0108L20.8968 38.9375C16.0405 37.4311 11.013 37.0409 5.94881 37.7748ZM38.3293 37.7976L38.1612 37.7748C33.1257 37.0261 27.9176 37.4914 23.021 39.0278V29.3313C24.8381 28.9017 26.1984 27.2692 26.1984 25.3136V23.8836C27.0334 23.1478 27.5702 22.083 27.5702 20.885C27.5702 20.3455 27.8174 19.8211 28.2649 19.4095C30.0082 17.8051 31.0211 15.5656 31.157 13.2112C33.5606 12.8894 35.9615 12.905 38.3293 13.3413V37.7976Z" fill="white"/>
<path d="M9.62935 21.3799H12.6583C13.1782 21.3799 13.6001 20.9579 13.6001 20.4381C13.6001 19.9182 13.1782 19.4962 12.6583 19.4962H9.62935C9.10948 19.4962 8.6875 19.9182 8.6875 20.4381C8.6875 20.9575 9.10948 21.3799 9.62935 21.3799Z" fill="white"/>
<path d="M9.62971 27.2917H15.0126C15.5334 27.2917 15.9545 26.8697 15.9545 26.3498C15.9545 25.8299 15.5334 25.408 15.0126 25.408H9.62971C9.10895 25.408 8.68652 25.8299 8.68652 26.3498C8.68652 26.8697 9.10895 27.2917 9.62971 27.2917Z" fill="white"/>
<path d="M16.5454 30.9393H9.62971C9.10895 30.9393 8.68652 31.3613 8.68652 31.8812C8.68652 32.4011 9.1085 32.823 9.62971 32.823H16.5454C17.0653 32.823 17.4873 32.4011 17.4873 31.8812C17.4873 31.3613 17.0653 30.9393 16.5454 30.9393Z" fill="white"/>
<path d="M30.5576 20.8184C30.5576 21.3383 30.9796 21.7603 31.5008 21.7603H34.5288C35.0487 21.7603 35.4707 21.3383 35.4707 20.8184C35.4707 20.2986 35.0487 19.8766 34.5288 19.8766H31.5008C30.9796 19.8766 30.5576 20.2986 30.5576 20.8184Z" fill="white"/>
<path d="M34.5269 25.408H29.144C28.6232 25.408 28.2021 25.8299 28.2021 26.3498C28.2021 26.8697 28.6232 27.2917 29.144 27.2917H34.5269C35.0477 27.2917 35.4701 26.8697 35.4701 26.3498C35.4701 25.8299 35.0477 25.408 34.5269 25.408Z" fill="white"/>
<path d="M33.8531 30.9335H27.6088C27.089 30.9335 26.667 31.3554 26.667 31.8753C26.667 32.3952 27.089 32.8172 27.6088 32.8172H33.8531C34.373 32.8172 34.795 32.3952 34.795 31.8753C34.795 31.3554 34.3725 30.9335 33.8531 30.9335Z" fill="white"/>
</svg>
