<svg width="176" height="206" viewBox="0 0 176 206" fill="none" xmlns="http://www.w3.org/2000/svg">
<path d="M9.1694 4.18901C3.25543 21.2688 3.62482 43.0054 6.86827 60.142C11.3048 83.5821 23.5222 109.164 44.8782 116.183C52.9133 118.824 65.3751 120.523 73.6612 116.668C80.0727 113.684 73.6945 102.92 71.3535 99.6498C66.6997 93.1477 58.6932 86.3718 50.7698 86.7963C41.8047 87.2766 39.0266 96.9278 39.0883 105.692C39.2514 128.821 53.5783 145.68 69.6248 156.92C77.5999 162.507 87.3699 164.8 96.723 165.779C102.528 166.387 107.694 165.172 112.601 161.103C117.413 157.113 122.862 150.25 122.55 143.065C122.255 136.3 114.921 131.349 110.357 128.653C105.487 125.777 99.9867 126.107 100.062 134.009C100.203 148.964 105.193 166.632 113.673 177.667C116.809 181.748 124.514 189.078 128.281 192.247C133.547 196.675 140.963 203.424 148.335 201.478C156.158 199.414 168.572 202.471 171.671 195.039" stroke="white" stroke-opacity="0.54" stroke-width="7.67483" stroke-linecap="round" stroke-dasharray="15.35 15.35"/>
</svg>
